HIERARCHY
ROOT Hips
{
	OFFSET 0.000000 0.000000 0.000000
	CHANNELS 6 Xposition Yposition Zposition Xrotation Yrotation Zrotation
	JOINT C_ctrl
	{
		OFFSET 0.000000 35.040482 -0.000011
		CHANNELS 3 Xrotation Yrotation Zrotation
		JOINT Bip01
		{
			OFFSET -41.537640 41.789009 -0.000007
			CHANNELS 3 Xrotation Yrotation Zrotation
			JOINT Bip01_Pelvis
			{
				OFFSET -2.462887 0.000000 0.000000
				CHANNELS 3 Xrotation Yrotation Zrotation
				JOINT BN_Tail_01
				{
					OFFSET -11.399368 7.351341 -0.000013
					CHANNELS 3 Xrotation Yrotation Zrotation
					JOINT BN_Tail_02
					{
						OFFSET -11.365196 -0.343025 0.000012
						CHANNELS 3 Xrotation Yrotation Zrotation
						JOINT BN_Tail_03
						{
							OFFSET -15.076256 -0.454979 0.000017
							CHANNELS 3 Xrotation Yrotation Zrotation
							JOINT BN_Tail_04
							{
								OFFSET -17.395691 -0.525002 0.000016
								CHANNELS 3 Xrotation Yrotation Zrotation
								JOINT BN_Tail_05
								{
									OFFSET -16.699837 -0.504005 0.000016
									CHANNELS 3 Xrotation Yrotation Zrotation
									End Site
									{
										OFFSET 0.503998 -16.699829 0.000067
									}
								}
							}
						}
					}
				}
				JOINT Bip01_Spine
				{
					OFFSET 8.297798 5.916809 -0.000020
					CHANNELS 3 Xrotation Yrotation Zrotation
					JOINT Bip01_R_Thigh
					{
						OFFSET -8.297779 -5.916794 10.541781
						CHANNELS 3 Xrotation Yrotation Zrotation
						JOINT Bip01_R_Calf
						{
							OFFSET 5.631542 -22.906792 0.862690
							CHANNELS 3 Xrotation Yrotation Zrotation
							JOINT Bip01_R_HorseLink
							{
								OFFSET -16.984341 -19.231926 -3.555767
								CHANNELS 3 Xrotation Yrotation Zrotation
								JOINT Bip01_R_Foot
								{
									OFFSET 4.290367 -24.783146 0.578056
									CHANNELS 3 Xrotation Yrotation Zrotation
									JOINT Bip01_R_Toe0
									{
										OFFSET 3.561211 -5.815116 0.760802
										CHANNELS 3 Xrotation Yrotation Zrotation
										JOINT Bip01_R_Toe0Nub
										{
											OFFSET 16.135469 0.002017 1.534789
											CHANNELS 3 Xrotation Yrotation Zrotation
											End Site
											{
												OFFSET -0.000002 16.208284 -0.000056
											}
										}
									}
								}
							}
						}
					}
					JOINT Bip01_L_Thigh
					{
						OFFSET -8.297813 -5.916832 -10.541739
						CHANNELS 3 Xrotation Yrotation Zrotation
						JOINT Bip01_L_Calf
						{
							OFFSET 5.631535 -22.906792 -0.862625
							CHANNELS 3 Xrotation Yrotation Zrotation
							JOINT Bip01_L_HorseLink
							{
								OFFSET -16.984318 -19.231949 3.555875
								CHANNELS 3 Xrotation Yrotation Zrotation
								JOINT Bip01_L_Foot
								{
									OFFSET 4.290367 -24.783169 -0.577965
									CHANNELS 3 Xrotation Yrotation Zrotation
									JOINT Bip01_L_Toe0
									{
										OFFSET 3.561245 -5.815111 -0.760799
										CHANNELS 3 Xrotation Yrotation Zrotation
										JOINT Bip01_L_Toe0Nub
										{
											OFFSET 6.574303 -0.000005 -1.538561
											CHANNELS 3 Xrotation Yrotation Zrotation
											End Site
											{
												OFFSET 0.000004 -6.751935 0.000023
											}
										}
									}
								}
							}
						}
					}
					JOINT Bip01_Spine1
					{
						OFFSET 20.556803 -4.626213 -0.000025
						CHANNELS 3 Xrotation Yrotation Zrotation
						JOINT Saddle
						{
							OFFSET 17.608810 18.174690 -0.000143
							CHANNELS 3 Xrotation Yrotation Zrotation
							End Site
							{
								OFFSET -0.000063 -0.000061 -22.448387
							}
						}
						JOINT BN_center
						{
							OFFSET 10.743275 -13.417107 -0.172041
							CHANNELS 3 Xrotation Yrotation Zrotation
							End Site
							{
								OFFSET 22.434088 0.553078 -0.579614
							}
						}
						JOINT Bip01_Spine2
						{
							OFFSET 24.765072 -2.054115 -0.000032
							CHANNELS 3 Xrotation Yrotation Zrotation
							JOINT Handle
							{
								OFFSET 63.735676 16.430748 -16.052464
								CHANNELS 3 Xrotation Yrotation Zrotation
								JOINT IK_Chain01
								{
									OFFSET -4.713058 -6.020439 0.185448
									CHANNELS 3 Xrotation Yrotation Zrotation
									End Site
									{
										OFFSET -0.000023 -0.000023 -7.648071
									}
								}
							}
							JOINT BN_hair04_01
							{
								OFFSET 1.987491 16.256981 -2.049672
								CHANNELS 3 Xrotation Yrotation Zrotation
								JOINT BN_hair04_02
								{
									OFFSET -1.318762 -3.831451 -6.174704
									CHANNELS 3 Xrotation Yrotation Zrotation
									JOINT BN_hair04_03
									{
										OFFSET -0.827490 -5.886627 -5.656666
										CHANNELS 3 Xrotation Yrotation Zrotation
										End Site
										{
											OFFSET -2.658262 5.010620 -5.929780
										}
									}
								}
							}
							JOINT Bip01_Neck
							{
								OFFSET 25.574577 9.433014 -0.000084
								CHANNELS 3 Xrotation Yrotation Zrotation
								JOINT Bip01_R_Clavicle
								{
									OFFSET -16.535652 0.011192 6.705692
									CHANNELS 3 Xrotation Yrotation Zrotation
									JOINT Bip01_R_UpperArm
									{
										OFFSET 20.272621 -12.959984 2.510816
										CHANNELS 3 Xrotation Yrotation Zrotation
										JOINT Bip01_R_Forearm
										{
											OFFSET -13.633509 -15.503704 -0.653585
											CHANNELS 3 Xrotation Yrotation Zrotation
											JOINT Bip01_R_Hand
											{
												OFFSET 2.580030 -27.804676 -1.136415
												CHANNELS 3 Xrotation Yrotation Zrotation
												JOINT Bip01_R_Finger0
												{
													OFFSET -0.281744 -19.659061 -0.398649
													CHANNELS 3 Xrotation Yrotation Zrotation
													JOINT Bip01_Xtra02
													{
														OFFSET 4.152210 -5.712314 0.433813
														CHANNELS 3 Xrotation Yrotation Zrotation
														JOINT Bip01_Xtra02Nub
														{
															OFFSET 15.457960 0.041654 0.507982
															CHANNELS 3 Xrotation Yrotation Zrotation
															End Site
															{
																OFFSET -15.421730 -0.157725 -1.163459
															}
														}
													}
													JOINT Bip01_R_Finger0Nub
													{
														OFFSET 8.362326 -9.718440 -0.143142
														CHANNELS 3 Xrotation Yrotation Zrotation
														End Site
														{
															OFFSET -1.213036 -0.198171 9.872291
														}
													}
												}
											}
										}
									}
								}
								JOINT Bip01_L_Clavicle
								{
									OFFSET -16.535673 0.011162 -6.705583
									CHANNELS 3 Xrotation Yrotation Zrotation
									JOINT Bip01_L_UpperArm
									{
										OFFSET 20.272615 -12.959999 -2.510836
										CHANNELS 3 Xrotation Yrotation Zrotation
										JOINT Bip01_L_Forearm
										{
											OFFSET -13.633495 -15.503681 0.653678
											CHANNELS 3 Xrotation Yrotation Zrotation
											JOINT Bip01_L_Hand
											{
												OFFSET 2.579988 -27.804686 1.136487
												CHANNELS 3 Xrotation Yrotation Zrotation
												JOINT Bip01_L_Finger0
												{
													OFFSET -0.281765 -19.659058 0.398696
													CHANNELS 3 Xrotation Yrotation Zrotation
													JOINT Bip01_Xtra01
													{
														OFFSET 4.083549 -5.738758 -0.666714
														CHANNELS 3 Xrotation Yrotation Zrotation
														JOINT Bip01_Xtra01Nub
														{
															OFFSET 6.758158 -0.395525 -0.023239
															CHANNELS 3 Xrotation Yrotation Zrotation
															End Site
															{
																OFFSET 6.764923 -0.254147 -0.029908
															}
														}
													}
													JOINT Bip01_L_Finger0Nub
													{
														OFFSET -0.012636 -9.629153 0.045740
														CHANNELS 3 Xrotation Yrotation Zrotation
														End Site
														{
															OFFSET 0.988407 0.004791 8.293357
														}
													}
												}
											}
										}
									}
								}
								JOINT BN_hair03_01
								{
									OFFSET -5.894140 16.270622 -2.498433
									CHANNELS 3 Xrotation Yrotation Zrotation
									JOINT BN_hair03_02
									{
										OFFSET -0.189278 -7.800507 -6.219162
										CHANNELS 3 Xrotation Yrotation Zrotation
										JOINT BN_hair03_03
										{
											OFFSET 0.612345 -10.844475 -3.370718
											CHANNELS 3 Xrotation Yrotation Zrotation
											End Site
											{
												OFFSET -2.273296 2.862007 -10.769416
											}
										}
									}
								}
								JOINT Bip01_Neck1
								{
									OFFSET 9.383755 11.908699 -0.000007
									CHANNELS 3 Xrotation Yrotation Zrotation
									JOINT BN_hair02_01
									{
										OFFSET 9.126320 18.808022 -1.420810
										CHANNELS 3 Xrotation Yrotation Zrotation
										JOINT BN_hair02_02
										{
											OFFSET 0.393478 -5.181091 -5.248574
											CHANNELS 3 Xrotation Yrotation Zrotation
											JOINT BN_hair02_03
											{
												OFFSET 0.762280 -8.167076 -0.230047
												CHANNELS 3 Xrotation Yrotation Zrotation
												End Site
												{
													OFFSET -0.025837 -1.251419 -8.109770
												}
											}
										}
									}
									JOINT Bip01_Head
									{
										OFFSET 14.266129 10.475403 -0.000008
										CHANNELS 3 Xrotation Yrotation Zrotation
										JOINT BN_Reins_01
										{
											OFFSET 18.547455 -15.740112 -0.000035
											CHANNELS 3 Xrotation Yrotation Zrotation
											JOINT BN_Reins_02
											{
												OFFSET -5.372810 -5.884506 0.000028
												CHANNELS 3 Xrotation Yrotation Zrotation
												JOINT BN_Reins_03
												{
													OFFSET -6.395866 -15.947449 0.000070
													CHANNELS 3 Xrotation Yrotation Zrotation
													JOINT BN_Halter_R_01
													{
														OFFSET -1.234055 -3.096100 7.096737
														CHANNELS 3 Xrotation Yrotation Zrotation
														End Site
														{
															OFFSET 10.514435 -4.176861 -0.000004
														}
													}
													JOINT BN_Halter_L_01
													{
														OFFSET -1.234062 -3.096146 -7.096726
														CHANNELS 3 Xrotation Yrotation Zrotation
														End Site
														{
															OFFSET -10.514435 4.176865 -0.000000
														}
													}
													JOINT BN_Reins_04
													{
														OFFSET -6.737644 -16.971684 0.000074
														CHANNELS 3 Xrotation Yrotation Zrotation
														JOINT BN_Halter_R_02
														{
															OFFSET -4.688869 -11.781956 7.096771
															CHANNELS 3 Xrotation Yrotation Zrotation
															End Site
															{
																OFFSET 14.669624 -5.827511 -0.000006
															}
														}
														JOINT BN_Halter_L_02
														{
															OFFSET -4.688892 -11.782017 -7.096693
															CHANNELS 3 Xrotation Yrotation Zrotation
															End Site
															{
																OFFSET -14.669624 5.827507 -0.000002
															}
														}
														JOINT BN_Reins_05
														{
															OFFSET -6.822578 -16.971161 0.000074
															CHANNELS 3 Xrotation Yrotation Zrotation
															JOINT BN_Reins_06
															{
																OFFSET -6.140354 -15.095148 0.000066
																CHANNELS 3 Xrotation Yrotation Zrotation
																End Site
																{
																	OFFSET -15.095150 6.140352 -0.000002
																}
															}
														}
													}
												}
											}
										}
										JOINT BN_hair01_01
										{
											OFFSET 8.957344 8.870956 0.112121
											CHANNELS 3 Xrotation Yrotation Zrotation
											JOINT BN_hair01_02
											{
												OFFSET 6.002075 -2.962952 -3.121264
												CHANNELS 3 Xrotation Yrotation Zrotation
												End Site
												{
													OFFSET 5.917702 3.813591 -2.232396
												}
											}
										}
										JOINT BN_Eyebrow_R
										{
											OFFSET 11.795959 -0.430496 4.449781
											CHANNELS 3 Xrotation Yrotation Zrotation
											JOINT Bip01_Xtra06Nub
											{
												OFFSET 2.936661 -0.262573 3.246701
												CHANNELS 3 Xrotation Yrotation Zrotation
												End Site
												{
													OFFSET 2.768745 0.208199 3.394807
												}
											}
										}
										JOINT BN_Eyebrow_L
										{
											OFFSET 11.586395 -0.445618 -4.441728
											CHANNELS 3 Xrotation Yrotation Zrotation
											JOINT Bip01_Xtra05Nub
											{
												OFFSET 3.244698 -0.349442 -4.416700
												CHANNELS 3 Xrotation Yrotation Zrotation
												End Site
												{
													OFFSET 3.053162 0.072495 -4.564033
												}
											}
										}
										JOINT Bip01_R_Ear_01
										{
											OFFSET 7.142960 7.567184 4.311657
											CHANNELS 3 Xrotation Yrotation Zrotation
											JOINT Bip01_Xtra04Nub
											{
												OFFSET 9.464531 9.264214 1.682953
												CHANNELS 3 Xrotation Yrotation Zrotation
												End Site
												{
													OFFSET 8.448181 10.159340 1.910823
												}
											}
										}
										JOINT Bip01__L_Ear_01
										{
											OFFSET 7.214943 7.717056 -4.356771
											CHANNELS 3 Xrotation Yrotation Zrotation
											JOINT Bip01_Xtra03Nub
											{
												OFFSET 9.230225 8.944366 -2.322746
												CHANNELS 3 Xrotation Yrotation Zrotation
												End Site
												{
													OFFSET 8.170288 9.841324 -2.643566
												}
											}
										}
										JOINT Bip01_Jaw
										{
											OFFSET 9.196068 -4.110695 -0.000013
											CHANNELS 3 Xrotation Yrotation Zrotation
											JOINT Bip01_Ponytail1Nub
											{
												OFFSET 10.976463 -21.082108 -0.000053
												CHANNELS 3 Xrotation Yrotation Zrotation
												End Site
												{
													OFFSET 11.247093 -20.938980 0.000113
												}
											}
										}
										JOINT Bip01_HeadNub
										{
											OFFSET 29.954575 -18.249489 -0.000063
											CHANNELS 3 Xrotation Yrotation Zrotation
											End Site
											{
												OFFSET -9.198448 -13.366348 0.000168
											}
										}
									}
								}
							}
						}
					}
				}
			}
		}
	}
}
MOTION
Frames: 4
Frame Time: 0.033333
0.000000 0.000000 0.000000 0.000008 0.000000 -0.000000 -0.000000 0.000000 -0.000000 11.731557 -10.201902 39.975362 -0.078696 0.254030 0.409785 5.482834 -7.823727 35.332944 -1.238385 2.037775 28.150626 0.587970 -1.480519 23.703818 1.731991 -8.493712 10.334026 0.079158 -5.920111 -1.091228 6.552840 9.998244 5.889804 -11.089033 11.982810 -8.219639 8.262527 -2.948564 -45.496655 -6.582192 -2.565673 36.282279 -6.489784 -1.153736 -28.928286 11.299143 0.684372 -0.379772 0.000101 -0.000138 0.000004 19.478834 -0.987753 -12.969570 0.821276 0.075121 4.177734 -1.687850 0.033645 -8.559246 -26.604184 -2.302209 -30.872817 -0.096148 0.000055 -0.124644 -0.011664 -0.007888 -0.036945 6.633909 -4.651750 -10.314795 0.917532 -0.020779 6.784390 -0.004009 -0.188451 0.020297 0.198528 15.281215 -4.346883 0.000078 -0.000112 -0.000057 -0.000054 -0.014926 0.015042 0.094825 8.539861 -9.234511 7.258873 -6.193243 5.569494 20.599866 -4.899892 8.108551 -2.308384 2.352160 -1.081512 -15.997766 -1.498837 21.396505 11.415511 0.992589 -5.242417 0.492849 -1.517068 39.687525 3.223069 -0.281904 -44.159946 1.263544 3.021206 -15.823837 -0.005265 -0.003786 0.005722 -0.782096 0.140330 -0.478852 -0.804181 0.123473 -0.482652 4.114200 -3.915027 12.745838 4.971036 4.225193 1.674013 -0.363396 1.333117 34.196561 -10.389702 -3.130956 -84.034242 -8.556962 3.897370 -73.846414 -0.025603 4.182787 -0.012935 0.036817 0.063821 2.451883 -0.000914 0.100575 2.451955 12.284141 7.600169 -10.033610 14.412995 -1.043137 4.791278 17.245263 2.018717 6.552942 2.590649 4.209532 -0.466683 21.748518 17.052018 -17.297116 -8.672441 -0.514248 22.234914 -5.315187 1.980679 13.113747 11.430107 26.971835 0.443795 -0.000024 0.000309 33.480064 -0.441794 -0.458718 -72.796129 -0.000068 -0.000072 -21.993996 0.000020 -0.000005 -0.026803 0.000003 -0.000013 0.012743 -0.000099 -0.000099 -34.639878 0.000034 0.000016 0.015165 0.000024 -0.000010 0.012721 -0.000031 -0.000034 -24.223450 0.000017 -0.000013 -0.000048 -0.073137 0.030682 0.020271 -11.525090 -12.328247 9.919920 -12.965031 -0.890247 -17.184792 0.024276 -0.029985 11.786682 10.325291 0.951264 -15.692353 0.023349 -0.032255 11.715835 0.089455 -0.130639 0.175095 0.050360 0.015293 11.756028 -0.143704 0.052030 -0.044299 0.022795 0.006717 11.747273 -5.485689 6.708477 -13.913519 -0.004456 -0.052641 11.750707 0.000071 -0.000031 11.750675 
0.000000 0.000000 0.000000 0.000008 0.000000 -0.000000 -0.000000 0.000000 -0.000000 12.301188 -10.392444 40.267329 -0.080554 0.254382 0.410548 6.542478 -9.207711 35.480329 -1.610905 2.765639 27.578441 -0.233200 0.213779 24.188640 1.672049 -7.821831 11.013993 0.142203 -8.037977 -0.736920 6.058398 10.097190 5.453159 -10.770824 11.087751 -7.321830 8.447223 -3.120517 -46.764188 -6.770751 -2.723934 37.519773 -7.735177 0.428191 -29.401635 12.144271 0.704473 -0.399490 0.000101 -0.000138 0.000004 19.849283 -2.211016 -12.253516 0.755576 0.066886 3.842489 -1.724803 0.037207 -8.747300 -27.068233 -0.960689 -30.130126 -0.121861 0.000112 -0.215841 -0.011664 -0.007888 -0.036945 6.184992 -4.239165 -9.957384 0.917532 -0.020778 6.784390 -0.004029 -0.188450 0.020303 -0.114820 15.749378 -4.146352 0.000075 -0.000113 -0.000056 -0.000053 -0.014927 0.015044 0.646645 7.997642 -9.474797 7.342952 -6.307798 5.689282 19.706737 -5.289290 8.543926 -1.909570 1.940976 -0.224786 -15.756966 -0.861326 20.207770 11.399908 0.913579 -5.805974 0.503960 -1.531259 40.127423 3.457661 -0.402560 -49.381766 1.796045 2.802452 -16.763296 -0.005162 -0.004077 0.005717 -0.781881 0.140333 -0.478810 -0.804182 0.123471 -0.482653 3.614650 -3.665221 12.425643 6.307077 3.339520 1.214390 -0.449547 1.459779 37.933464 -10.744934 -3.963176 -83.867223 -8.889529 4.648331 -74.875034 -0.024909 4.057012 -0.012901 0.036600 0.063820 2.451882 -0.000910 0.100573 2.451955 10.434260 7.348152 -9.624965 13.502160 -1.102925 4.989561 16.540939 1.818021 6.764243 2.171820 6.531978 1.108612 23.808803 16.544690 -19.482495 -12.199793 -0.575141 21.595072 -9.562642 1.970964 12.186567 13.098631 26.944005 0.923181 -0.000023 0.000307 33.480064 -0.441792 -0.458721 -72.796122 -0.000068 -0.000074 -21.993996 0.000021 -0.000006 -0.026805 0.000004 -0.000016 0.012747 -0.000100 -0.000100 -34.639878 0.000036 0.000016 0.015166 0.000027 -0.000010 0.012720 -0.000031 -0.000033 -24.223454 0.000013 -0.000013 -0.000051 -0.073221 0.030708 0.020273 -15.032476 -12.657268 7.756097 -12.959493 -0.929930 -17.140554 0.024343 -0.029977 11.786768 10.304511 0.952035 -15.661219 0.023213 -0.032289 11.716004 0.089455 -0.130640 0.175095 0.050257 0.015100 11.756002 -0.143714 0.052006 -0.044298 0.022793 0.006714 11.747277 -4.297360 6.040696 -13.785408 -0.004386 -0.052723 11.750714 0.000068 -0.000035 11.750675 
0.000000 0.000000 0.000000 0.000008 0.000000 -0.000000 -0.000000 0.000000 -0.000000 12.960941 -10.573253 40.511836 -0.079747 0.254754 0.411256 7.489562 -10.433407 35.633421 -1.746694 3.106987 26.933671 -1.088239 1.912550 24.657258 1.429269 -6.399965 11.838748 0.229851 -9.755750 -0.394511 5.532971 10.204212 5.104963 -10.634847 10.078562 -6.481137 8.634127 -3.302514 -48.074109 -6.959263 -2.889267 38.779792 -8.819227 2.218005 -29.734023 12.973020 0.723860 -0.419177 0.000101 -0.000138 0.000004 20.089378 -3.565091 -11.706950 0.689554 0.058996 3.505779 -1.723376 0.037075 -8.740016 -27.566201 0.588852 -29.361190 -0.146956 0.000194 -0.305320 -0.011664 -0.007887 -0.036945 5.710394 -3.741464 -9.544504 0.917530 -0.020779 6.784394 -0.004084 -0.188424 0.020301 -0.473422 16.270697 -3.938551 0.000078 -0.000112 -0.000052 -0.000051 -0.014927 0.015040 1.124630 7.514346 -9.669160 7.533833 -6.491131 5.869248 18.833304 -5.677643 8.965222 -1.568530 1.528374 0.496194 -15.392270 -0.270562 19.136940 11.273349 0.734491 -6.332212 0.524048 -1.556344 40.911132 3.717418 -0.544791 -55.155728 2.436836 2.543489 -17.968450 -0.005013 -0.004076 0.005738 -0.781908 0.140334 -0.478809 -0.804180 0.123476 -0.482654 3.197807 -3.388505 12.204435 7.693485 2.279855 0.773950 -0.538618 1.574353 41.474159 -11.050284 -4.777319 -83.317216 -9.201584 5.348609 -75.543593 -0.024300 3.926563 -0.012866 0.036629 0.063821 2.451884 -0.000917 0.100572 2.451954 8.695773 7.091846 -9.243319 12.655062 -1.157185 5.153761 15.029801 1.438479 6.901067 1.669960 8.724181 2.643564 25.630025 16.092247 -21.184144 -14.715981 -0.599915 20.162000 -13.132350 1.802098 10.308571 14.524589 26.746143 1.734919 -0.000020 0.000306 33.480064 -0.441790 -0.458716 -72.796122 -0.000069 -0.000076 -21.993998 0.000019 -0.000005 -0.026803 0.000002 -0.000014 0.012747 -0.000105 -0.000097 -34.639899 0.000036 0.000015 0.015166 0.000025 -0.000012 0.012723 -0.000034 -0.000032 -24.223461 0.000017 -0.000014 -0.000050 -0.073043 0.030648 0.020275 -17.711702 -12.507672 5.903814 -12.954040 -0.968831 -17.097154 0.024205 -0.030021 11.786605 10.284140 0.952797 -15.630698 0.023225 -0.032293 11.715979 0.089455 -0.130645 0.175091 0.050268 0.015117 11.755999 -0.143735 0.051945 -0.044296 0.022795 0.006718 11.747270 -3.104897 5.359817 -13.595247 -0.004526 -0.052558 11.750684 0.000069 -0.000038 11.750682 
0.000000 0.000000 0.000000 0.000008 0.000000 -0.000000 -0.000000 0.000000 -0.000000 13.738649 -10.757733 40.716868 -0.082486 0.255074 0.412016 8.309873 -11.485381 35.782125 -1.652291 3.039917 26.217623 -1.973485 3.617112 25.056978 1.043257 -4.525781 12.899350 0.318685 -10.318726 0.070946 4.960746 10.317948 4.831686 -10.585599 9.047737 -5.736534 8.819161 -3.491125 -49.400354 -7.166059 -3.079313 40.190667 -9.760806 4.109243 -30.040494 13.730817 0.732520 -0.432338 0.000101 -0.000138 0.000004 20.213364 -5.033387 -11.335515 0.638516 0.053170 3.245625 -1.695096 0.034328 -8.596145 -28.121584 2.365455 -28.576859 -0.172211 0.000312 -0.395687 -0.011664 -0.007887 -0.036945 5.196943 -3.149347 -9.065690 0.917533 -0.020779 6.784393 -0.003973 -0.188476 0.020299 -0.888893 16.849901 -3.715964 0.000080 -0.000112 -0.000061 -0.000052 -0.014927 0.015042 1.541527 7.103411 -9.831653 7.902724 -6.776451 6.137484 17.953555 -6.076289 9.384867 -1.290931 1.111616 1.082745 -14.890509 0.289720 18.164500 11.088689 0.456835 -6.808179 0.553038 -1.591354 42.020314 4.001646 -0.749056 -61.383470 3.161431 2.250293 -19.424988 -0.005080 -0.003919 0.005712 -0.781940 0.140330 -0.478798 -0.804180 0.123478 -0.482653 2.864457 -3.075864 12.059823 9.161810 1.051459 0.350784 -0.627340 1.675437 44.755480 -11.287886 -5.562296 -82.381323 -9.501286 5.984017 -75.847734 -0.023587 3.794734 -0.012854 0.036653 0.063820 2.451882 -0.000913 0.100573 2.451953 7.069408 6.859928 -8.902580 12.003041 -1.207866 5.300252 13.504830 1.051684 7.028984 1.082737 10.815283 4.168838 27.218644 15.784921 -22.389908 -15.688974 -0.578012 18.595352 -15.997000 1.634720 8.550351 15.642250 26.406133 2.931718 -0.000025 0.000302 33.480064 -0.441789 -0.458718 -72.796122 -0.000070 -0.000084 -21.993998 0.000017 -0.000007 -0.026805 0.000000 -0.000015 0.012742 -0.000110 -0.000105 -34.639899 0.000033 0.000015 0.015166 0.000022 -0.000009 0.012723 -0.000035 -0.000027 -24.223461 0.000018 -0.000014 -0.000050 -0.073061 0.030645 0.020282 -18.792787 -12.347625 5.106603 -12.948492 -1.008125 -17.053319 0.024218 -0.030016 11.786625 10.263566 0.953552 -15.599867 0.023243 -0.032285 11.715962 0.089456 -0.130647 0.175096 0.050285 0.015150 11.756006 -0.143743 0.051923 -0.044312 0.022797 0.006717 11.747266 -1.893956 4.664331 -13.347175 -0.004505 -0.052575 11.750691 0.000067 -0.000038 11.750672 
